<svg xmlns="http://www.w3.org/2000/svg" viewBox="0 0 770 85" width="770" height="85"><rect x="2" y="2" width="766" height="81" rx="6" fill="#fdfcf9" stroke="#bbb" stroke-width="1.5"/><text x="10" y="18" font-size="10" font-family="sans-serif" fill="#888">Word54 / tlong long</text><text x="760" y="18" text-anchor="end" font-size="10" font-family="sans-serif" fill="#888">54 трита · ±2.9×10²⁵</text><g transform="translate(8,26)"><rect x="0" y="2" width="40" height="46" rx="4" fill="#ede8e0" stroke="#ccc" stroke-width="1"/><text x="20" y="33" text-anchor="middle" font-size="26" font-family="monospace" font-weight="bold" fill="#e07060">−</text><text x="20" y="45" text-anchor="middle" font-size="7" font-family="sans-serif" fill="#888">t₅₃</text><rect x="42" y="2" width="40" height="46" rx="4" fill="#ede8e0" stroke="#ccc" stroke-width="1"/><text x="62" y="33" text-anchor="middle" font-size="26" font-family="monospace" font-weight="bold" fill="#70a870">+</text><text x="62" y="45" text-anchor="middle" font-size="7" font-family="sans-serif" fill="#888">t₅₂</text><rect x="84" y="2" width="40" height="46" rx="4" fill="#ede8e0" stroke="#ccc" stroke-width="1"/><text x="104" y="33" text-anchor="middle" font-size="26" font-family="monospace" font-weight="bold" fill="#8b7355">0</text><text x="104" y="45" text-anchor="middle" font-size="7" font-family="sans-serif" fill="#888">t₅₁</text><rect x="168" y="2" width="40" height="46" rx="4" fill="#ede8e0" stroke="#ccc" stroke-width="1"/><text x="188" y="33" text-anchor="middle" font-size="20" font-family="monospace" font-weight="bold" fill="#aaa">⋯</text><text x="188" y="45" text-anchor="middle" font-size="7" font-family="sans-serif" fill="#888">t₅₀..t₃</text><rect x="252" y="2" width="40" height="46" rx="4" fill="#ede8e0" stroke="#ccc" stroke-width="1"/><text x="272" y="33" text-anchor="middle" font-size="26" font-family="monospace" font-weight="bold" fill="#70a870">+</text><text x="272" y="45" text-anchor="middle" font-size="7" font-family="sans-serif" fill="#888">t₂</text><rect x="294" y="2" width="40" height="46" rx="4" fill="#ede8e0" stroke="#ccc" stroke-width="1"/><text x="314" y="33" text-anchor="middle" font-size="26" font-family="monospace" font-weight="bold" fill="#e07060">−</text><text x="314" y="45" text-anchor="middle" font-size="7" font-family="sans-serif" fill="#888">t₁</text><rect x="336" y="2" width="40" height="46" rx="4" fill="#ede8e0" stroke="#ccc" stroke-width="1"/><text x="356" y="33" text-anchor="middle" font-size="26" font-family="monospace" font-weight="bold" fill="#8b7355">0</text><text x="356" y="45" text-anchor="middle" font-size="7" font-family="sans-serif" fill="#888">t₀</text></g></svg>